<svg enable-background="new 0 0 100 100" height="512" viewBox="0 0 100 100" width="512" xmlns="http://www.w3.org/2000/svg"><path d="m88.6983185 65.0883408c-20.2196045-21.5503578-53.0020638-21.5503578-73.2216721 0h-.0000982.0000982c18.9267273 20.1727753 49.286087 21.6019211 69.6205139 4.0089264 1.3890458-1.2017746 2.4868546-2.3911515 3.6011582-4.0089264h.0000992z" fill="#ededed"/><path d="m79.2595291 55.2372322c-2.1420593-7.0078354 4.6360168-12.5851021 4.6360168-12.5851021-5.7694397 2.8831673-6.493454 8.1144333-6.2971725 11.4144745-1.050148-.6927605-2.154213-1.3321152-3.2883301-1.9378052-1.8131485-6.6276703 4.3268433-12.1107788 4.3268433-12.1107788-5.4604568 3.0097237-6.1213303 8.0217972-5.8620758 11.3241119-1.0996399-.5315285-2.2349625-1.0177498-3.3991318-1.464489-1.8518143-6.4646645 3.9518585-12.0381355 3.9518585-12.0381355-5.3263702 3.1912041-5.8246841 8.1966934-5.4552689 11.4881287-1.3447723-.4621773-2.7241516-.8701897-4.1390343-1.2141647-2.8462143-6.8934326 3.588459-13.0741119 3.588459-13.0741119-6.039444 3.6184502-5.8713799 9.5672798-5.2694206 12.7071037-1.5452957-.3171463-3.1215363-.5689926-4.7322578-.7373085-3.0116882-6.8192711 3.2658691-13.1551056 3.2658691-13.1551056-6.0640564 3.8401756-5.6187134 9.9426422-4.9138031 13.0133629-1.1810074-.0837784-2.3713188-.1412354-3.5794067-.1412354-.1083946 0-.2141342.008606-.3222733.0091133-3.0650902-6.5717316 2.7373772-13.038929 2.7373772-13.038929-5.7647552 4.0667076-5.1398277 10.0026283-4.3030472 13.083477-1.1484833.0430298-2.2863998.1161766-3.4077377.2348862-4.1481476-6.1077843.770401-13.4522591.770401-13.4522591-5.1932983 4.8908348-3.6492691 10.7576561-2.3787231 13.6580353-1.4920158.2078018-2.9628334.464962-4.3938522.8010902-4.414669-5.4777908-.7011757-13.0457611-.7011757-13.0457611-4.2763443 5.2692299-2.392704 10.6009789-.7824249 13.4370689-1.2061272.3249931-2.395237.6798515-3.5476418 1.0919151-4.7853489-4.9897995-1.9373016-12.7675972-1.9373016-12.7675972-3.6381931 5.5972633-1.3422356 10.6250267.5419731 13.3107681-1.2141037.4804039-2.4045391.9932022-3.5463791 1.5657349-5.4950676-4.9505653-2.4504795-13.2644501-2.4504795-13.2644501-3.9845104 6.1300583-.8521557 11.5774765 1.0624275 14.0123901-1.1838551.6499825-2.3251266 1.3447685-3.4143829 2.0904274-5.3977451-4.9579048-2.3766956-13.2011719-2.3766956-13.2011719-4.0273495 6.1958656-.7831841 11.6966896 1.1245651 14.0918655-.8660145.6439095-1.6981106 1.3159142-2.4917984 2.0182953-6.0089436-4.9019699-2.8270416-13.5884323-2.8270416-13.5884323-4.418088 6.7970009-.0861206 12.7569656 1.6330605 14.6980629-1.8475075 1.7894821-4.2596016 4.5335312-5.6048775 6.6176338 9.4032021-5.7643127 22.035408-13.0590134 36.6160278-13.0590134 15.7707977 0 27.2025452 7.2947006 36.6057434 13.0590134-2.2085038-3.4215314-5.941803-7.2762258-9.4388886-9.8511083z" fill="#344d5b"/><ellipse cx="53.304" cy="65.692" fill="#4da0dc" rx="10.917" ry="10.917" transform="matrix(.383 -.924 .924 .383 -27.786 89.799)"/><ellipse cx="53.304" cy="65.692" fill="#293b44" rx="3.92" ry="3.92" transform="matrix(.383 -.924 .924 .383 -27.786 89.799)"/><path d="m15.4765482 65.0883408s11.1211443 19.9805145 37.78125 21.0019455c26.6601028 1.0214386 35.4405212-21.0019455 35.4405212-21.0019455s-12.384819 16.4760056-36.8402863 15.6740417c-17.8428544-.5851211-27.1523065-10.083641-36.3814849-15.6740417z" fill="#344d5b"/><path d="m88.0096512 18.0440044c-21.2420044-6.1107101-67.4814606-12.8269863-83.0096512 37.7413769 0 0 26.7172585-47.7301559 75.6646652-20.0701408 4.7732086 2.6972427 10.8390121.8207664 13.3024979-4.0771446h.0000687c2.7155914-5.3992119-.1495133-11.9233647-5.9575806-13.5940915z" fill="#344d5b"/><circle cx="49.838" cy="62.982" fill="#ededed" r="1.766"/></svg>