<svg id="Capa_1" enable-background="new 0 0 512.002 512.002" height="512" viewBox="0 0 512.002 512.002" width="512" xmlns="http://www.w3.org/2000/svg"><g><path d="m187.183 324.89c-7.998-2.139-12.744-10.371-10.605-18.369l15.483-57.788c2.153-8.013 10.371-12.729 18.369-10.605 7.998 2.139 12.744 10.371 10.605 18.369l-15.483 57.788c-2.147 8.058-10.44 12.743-18.369 10.605z" fill="#5a5a5a"/><path d="m119.932 286.071c-5.859-5.859-5.859-15.352 0-21.211l32.432-32.432c5.859-5.859 15.352-5.859 21.211 0s5.859 15.352 0 21.211l-32.432 32.432c-5.86 5.86-15.352 5.86-21.211 0z" fill="#5a5a5a"/><path d="m310.859 286.071-30.527-30.527c-5.859-5.859-5.859-15.352 0-21.211s15.352-5.859 21.211 0l30.527 30.527c5.859 5.859 5.859 15.352 0 21.211-5.859 5.86-15.351 5.86-21.211 0z" fill="#292929"/><path d="m246.45 314.284-15.234-56.851c-2.139-7.998 2.607-16.23 10.605-18.369 8.057-2.095 16.23 2.593 18.369 10.605l15.234 56.851c2.139 7.998-2.607 16.23-10.605 18.369-7.923 2.137-16.22-2.54-18.369-10.605z" fill="#292929"/><path d="m448.761 112.882c-3.68 5.93-10.93 8.57-17.51 6.34-5.47-1.81-11.42-4.1-17.93-6.6-38.09-14.7-93.51-35.69-187.32-11.49-46.94 12.11-103.31 35.34-172.28 76.73-4.65 2.78-10.42 2.85-15.12.19s-7.6-7.64-7.6-13.05v-90c0-5.68 3.21-10.87 8.29-13.42 75-37.49 136.16-54.65 186.71-59.58 11.98-1.17 23.3-2.05 34-2 101.73.45 147.58 52.5 177.2 84.46 3.44 3.72 6.56 7.08 9.41 9.93 4.92 4.93 5.81 12.57 2.15 18.49z" fill="#9b786f"/><path d="m448.761 112.882c-3.68 5.93-10.93 8.57-17.51 6.34-5.47-1.81-11.42-4.1-17.93-6.6-38.09-14.7-93.51-35.69-187.32-11.49v-99.13c11.98-1.17 23.3-2.05 34-2 101.73.45 147.58 52.5 177.2 84.46 3.44 3.72 6.56 7.08 9.41 9.93 4.92 4.93 5.81 12.57 2.15 18.49z" fill="#5a344b"/><path d="m451.001 437.002h-15-15l-30 15v15c0 24.814 20.186 45 45 45s45-20.186 45-45v-15z" fill="#5a5a5a"/><path d="m481.001 467.002v-15l-30-15h-15v75c24.814 0 45-20.186 45-45z" fill="#292929"/><path d="m450.225 100.256c-2.036-6.123-8.13-9.185-14.224-9.185s-12.188 3.062-14.224 9.185l-11.581 34.746 25.805 15 25.805-15z" fill="#5a5a5a"/><path d="m450.225 100.256c-2.036-6.123-8.13-9.185-14.224-9.185v58.931l25.805-15z" fill="#292929"/><path d="m480.225 190.256-18.419-55.254h-25.805-25.805l-18.419 55.254c-.513 1.538-.776 3.135-.776 4.746l30 15h15 15l30-15c0-1.611-.264-3.208-.776-4.746z" fill="#fde4e4"/><path d="m481.001 195.002c0-1.611-.264-3.208-.776-4.746l-18.419-55.254h-25.805v75h15z" fill="#fcced3"/><path d="m436.001 195.002h-45v227l30 15h15 15l30-15v-227z" fill="#ff9ac9"/><path d="m481.001 422.002v-227h-45v242h15z" fill="#ff5e95"/><path d="m436.001 422.002h-45v30h45 45v-30z" fill="#edf5ff"/><path d="m436.001 422.002h45v30h-45z" fill="#d5e8fe"/><path d="m357.925 206.604c-5.01-6.592-14.443-7.881-21.021-2.827-33.869 25.853-70.3 36.161-110.903 35.037-43.209-1.208-77.549-15.795-81.855-20.14-2.827-7.778-11.382-11.777-19.219-8.965-7.778 2.827-11.807 11.426-8.965 19.219 9.21 25.353 71.382 38.699 110.039 39.84 48.261 1.436 91.291-12.286 129.097-41.144 6.591-5.024 7.851-14.443 2.827-21.02z" fill="#5a5a5a"/><path d="m355.098 227.624c6.592-5.024 7.852-14.443 2.827-21.021-5.01-6.592-14.443-7.881-21.021-2.827-33.869 25.853-70.299 36.161-110.903 35.037v29.954c48.261 1.436 91.291-12.285 129.097-41.143z" fill="#292929"/></g></svg>