<svg height="471pt" viewBox="-71 0 471 471.98945" width="471pt" xmlns="http://www.w3.org/2000/svg" xmlns:xlink="http://www.w3.org/1999/xlink"><linearGradient id="a" gradientUnits="userSpaceOnUse" x1="118.086725" x2="325.902725" y1="305.893447" y2="98.077447"><stop offset="0" stop-color="#41dfd0"/><stop offset="1" stop-color="#ee83ef"/></linearGradient><path d="m327.984375 106.8125c1.363281-3.617188-.054687-7.691406-3.371094-9.679688l-103.375-62.023437-24.160156-14.496094-.070313-.0625h-.066406l-32.328125-19.417969c-2.183593-1.300781-4.851562-1.492187-7.199219-.519531l-152 64c-2.976562 1.242188-4.917968 4.152344-4.917968 7.375v64c-.003906 2.742188 1.398437 5.292969 3.710937 6.761719 1.285157.808594 2.769531 1.238281 4.289063 1.238281.871094-.046875 1.730468-.238281 2.542968-.566406.136719 0 .261719-.046875.398438-.089844.136719-.039062.3125 0 .464844-.101562l133.679687-62.914063 78.113281 14.199219c.167969 0 .328126.058594.488282.089844l58.070312 10.550781-15.382812 32.097656c-1.546875 3.25-2.347656 6.800782-2.351563 10.398438v181.714844c-.019531 6.367187 2.511719 12.476562 7.03125 16.964843l1.976563 1.976563 7.398437 22.207031c.988281 2.898437 3.554688 4.964844 6.59375 5.3125v8.160156c-4.417969 0-8 3.582031-8 8s3.582031 8 8 8v8h-8c-4.417969 0-8 3.582031-8 8s3.582031 8 8 8h8v8h-8c-4.417969 0-8 3.582031-8 8s3.582031 8 8 8h8v8c-4.417969 0-8 3.582031-8 8s3.582031 8 8 8h16c4.417969 0 8-3.582031 8-8s-3.582031-8-8-8v-8h8c4.417969 0 8-3.582031 8-8s-3.582031-8-8-8h-8v-8h8c4.417969 0 8-3.582031 8-8s-3.582031-8-8-8h-8v-8c4.417969 0 8-3.582031 8-8s-3.582031-8-8-8v-8h.976563c3.445312.003907 6.503906-2.203125 7.589844-5.472656l7.402343-22.207031 1.972657-1.976563c4.519531-4.488281 7.050781-10.597656 7.035156-16.964843v-181.464844c-.003906-3.859375-.933594-7.65625-2.714844-11.082032l-13.664062-26.222656 6.945312 1.253906c3.804688.714844 7.570312-1.410156 8.921875-5.039062zm-311.488281-29.511719 19.070312-8-19.070312 35.71875zm11.132812 40.800781 31.328125-58.71875 17.152344-7.203124-30.6875 57.601562zm41.992188-19.710937 29.875-56 17.199218-7.25-29.273437 54.898437zm59.761718-28.121094-17.753906 8.359375 28.449219-53.351562 17.214844-7.257813zm20.976563-5.328125 21.71875-40.65625 10.488281 6.296875-19.511718 36.65625zm41.816406 7.601563-12.59375-2.289063 16.730469-31.433594 10.496094 6.296876zm29.214844 5.308593-12.679687-2.300781 11.832031-22.203125 10.519531 6.304688zm29.183594 5.304688-12.65625-2.292969 6.878906-12.945312 10.523437 6.3125zm16.519531 3.007812 1.960938-3.695312 9.6875 5.808594zm45.402344 243.203126c-.007813 2.117187-.851563 4.148437-2.34375 5.652343l-3.3125 3.3125c-.878906.878907-1.542969 1.949219-1.9375 3.128907l-6.175782 18.527343h-4.464843l-6.175781-18.527343c-.394532-1.179688-1.054688-2.25-1.933594-3.128907l-3.3125-3.3125c-1.496094-1.503906-2.335938-3.535156-2.34375-5.652343v-9.378907h32zm0-25.378907h-32v-136h32zm0-156.085937v4.085937h-32v-4.367187c.003906-1.195313.277344-2.378906.796875-3.457032l14.515625-30.285156 15.796875 30.328125c.589843 1.140625.894531 2.410157.890625 3.695313zm-90.351563 35.199218-.296875.152344 15.085938 10.054688c3.675781 2.453125 4.667968 7.421875 2.21875 11.097656-2.453125 3.675781-7.421875 4.667969-11.097656 2.214844l-22.695313-15.128906c-8.089844 3.613281-16.421875 6.648437-24.9375 9.089843l9.730469 9.726563c2.078125 2.007812 2.910156 4.984375 2.179687 7.78125s-2.917969 4.980468-5.714843 5.714844c-2.796876.730468-5.769532-.105469-7.777344-2.183594l-16-16c-.195313-.253906-.371094-.523438-.527344-.800782-11.15625 2.074219-22.472656 3.132813-33.816406 3.167969v24c0 4.417969-3.582032 8-8 8-4.417969 0-8-3.582031-8-8v-24.800781c-5.984375-.511719-11.929688-1.285156-17.816406-2.398438-.160157.277344-.335938.546876-.527344.800782l-16 16c-3.140625 3.03125-8.128906 2.988281-11.214844-.097656-3.085938-3.085938-3.128906-8.074219-.097656-11.214844l9.726562-9.726563c-8.515625-2.441406-16.847656-5.480469-24.9375-9.089843l-22.695312 15.128906c-3.675782 2.453125-8.644532 1.460937-11.09375-2.214844-2.453125-3.675781-1.460938-8.644531 2.214844-11.097656l15.089843-10.054688-.296875-.152344-14.351562-8.136718c-3.722656-2.246094-4.96875-7.046875-2.816406-10.820313 2.15625-3.769531 6.929687-5.132812 10.75-3.066406l14.328124 8.183594c53.109376 30.34375 118.300782 30.34375 171.410157 0l14.328125-8.183594c3.820312-2.066406 8.59375-.703125 10.75 3.066406 2.152344 3.773438.90625 8.574219-2.816406 10.820313zm0 0" fill="url(#a)"/></svg>